<?xml version="1.0" encoding="utf-8"?>
<!-- Generator: Adobe Illustrator 19.0.0, SVG Export Plug-In . SVG Version: 6.00 Build 0)  -->
<svg version="1.1" id="layer" xmlns="http://www.w3.org/2000/svg" xmlns:xlink="http://www.w3.org/1999/xlink" x="0px" y="0px"
	 viewBox="-153 -46 652 652" style="enable-background:new -153 -46 652 652;" xml:space="preserve">
<style type="text/css">
	.st0{fill:#091C3E;}
	.st1{fill:#06C167;}
	.st2{fill:#FFFFFF;}
	.st3{fill:#CDFB0A;}
</style>
<path class="st0" d="M220.8,436.6c-4.9,0.1-8.7,4.1-8.6,9s4.1,8.7,9,8.6h0.2c4.8-0.1,8.6-4,8.5-8.7v-0.3
	C229.7,440.3,225.7,436.5,220.8,436.6L220.8,436.6z M129.5,435.9c-4.2,0-7.8,3.1-8.6,7.2H138C137.2,439,133.7,435.9,129.5,435.9z
	 M97.1,435.9c-5.4,0-9.7,4.4-9.7,9.8s4.4,9.7,9.8,9.7s9.7-4.4,9.7-9.7v-0.1C106.9,440.2,102.5,435.9,97.1,435.9L97.1,435.9z"/>
<path class="st0" d="M-2,25v500h340.8V25H-2z M289.4,210.5c-17.8,37.5-37.8,70.2-63.7,102c-36.1,5.5-71.3,4.7-110.1,1l25.3-40.6
	c20.3,1.2,40.6,1.1,60.9-0.5c14.5-19.6,27.3-40.4,38.1-62.2c-8.6-17-18.4-33.3-29.4-48.8l25.2-40.3
	C256.6,148.7,275.6,178.1,289.4,210.5z M255,372.7l-1.8-7.9l13.6-7.5h5.3v37.1h-8.9v-26.2L255,372.7L255,372.7z M137.6,387.1
	c2,0.1,4-0.3,5.8-1.2v-9.5l8.6-1.1v15.1c-1.9,1.6-6.5,4.6-14.9,4.6c-12.4,0-21-8.5-21-19.1s8.5-19,21.2-19c4.7-0.2,9.4,0.7,13.7,2.6
	l-2.3,8.1c-3.5-1.7-7.3-2.5-11.1-2.3c-7,0-11.8,4.1-11.8,10.7S131,387.1,137.6,387.1L137.6,387.1z M135.6,202.8
	c0-18.1,14.7-32.8,32.8-32.8c18.1,0.1,32.8,14.7,32.8,32.8s-14.7,32.8-32.8,32.8S135.6,220.9,135.6,202.8z M111.1,93.2
	c36.5-4.4,73.5-4.7,110.1-1l-25.4,40.6c-20.3-1.2-40.6-1.1-60.9,0.5c-14.6,19.5-27.4,40.3-38.2,62.2c8.8,16.9,18.6,33.2,29.5,48.8
	L101,284.6c-21.8-28.8-39.5-56.9-53.6-89.2C64.2,158.7,85.6,124.4,111.1,93.2L111.1,93.2z M107.6,357.4v37.1h-9.3v-37.1H107.6z
	 M91.5,386.8v7.8h-27v-37.1h9.4v29.4L91.5,386.8L91.5,386.8z M76.9,459.7h-5.7V456c-2.7,2.8-6.4,4.3-10.2,4.3
	c-8.3,0-14.6-6-14.6-15.2v-24.2h5.9v23.9c0,6.2,4.1,10.2,9.4,10.2s9.5-4.1,9.5-10.3v-23.8H77L76.9,459.7L76.9,459.7z M97.6,460.4
	c-3.8,0-7.4-1.5-10-4.2v3.5h-5.5V421h5.5v14.1c2.6-2.7,6.2-4.2,10-4.2h1.5c8.1,0.4,14.4,7.3,14,15.4
	C112.6,454.6,105.7,460.8,97.6,460.4L97.6,460.4z M130,455.5c3.2,0.1,6.3-1.5,8.1-4.1l4,2.9c-2.8,3.9-7.4,6.1-12.2,6h-0.6
	c-8-0.1-14.5-6.7-14.4-14.8c0-8,6.4-14.5,14.4-14.6c8.1,0,14.1,6.3,14.1,14.7v1.7h-22.7C121.4,452,125.4,455.4,130,455.5L130,455.5z
	 M161.5,436.5h-2.3c-3.6,0-6.2,2.8-6.2,7.2v16h-5.6v-28.2h5.3v3.4h0.2c1.4-2.3,3.9-3.7,6.6-3.6h2V436.5z M160.4,378.2v-20.8h9.3
	v21.5c0.2,4.3,3.6,7.7,7.9,7.9c4.6,0.2,8.5-3.3,8.7-7.9l0.1-21.5h9.3v20.8c0,11-7.1,16.8-17.6,16.8
	C167.5,395,160.4,389.3,160.4,378.2z M202.5,427.6h-19.8v9.4H202v6.4h-19.3v9.6h19.8v6.7h-27.2v-38.8h27.2V427.6L202.5,427.6z
	 M205.8,357.4H233v7.8h-17.9v6.7h14.5v7.3h-14.5l0.1,7.5h18.4v7.8h-27.7v-37.1L205.8,357.4L205.8,357.4z M237,459.7h-7.3v-2.6
	c-2.6,2.1-5.8,3.3-9.1,3.3H220c-7.5-0.7-13.4-6.8-13.7-14.3c-0.4-8.3,6.1-15.3,14.4-15.7c3.3,0,6.6,1.2,9.1,3.3v-2.6l7.2-0.1
	L237,459.7L237,459.7z M261,437.6h-8.1V451c0,1.5,1.1,2.2,2.7,2.2h5.4v6.5h-7.8c-4.9,0-7.6-3-7.6-6.9v-15.2h-5.5v-6.5h5.5V423h7.2
	v8.1h8.1L261,437.6z M277.6,460.5c-9,0-13.4-4-14.3-9.9h7.2c0.9,3.2,3.3,4.1,7.5,4.1c3.2,0,5.3-1.1,5.3-2.9c0-1.1-0.8-1.9-3.5-2.4
	l-6.9-1.6c-6.3-1.3-9.2-4-9.2-8.2c0-6,5.3-9.1,12.8-9.1c8.7,0,13,3.9,13.4,9.9h-7.2c-0.7-3.2-3.2-4.1-6.6-4.1c-3.1,0-4.9,1-4.9,2.8
	c0,1.3,1.2,2,4.7,2.6l6.2,1.3c5.8,1.3,8.6,4.2,8.6,8.1C290.6,456.5,285.9,460.5,277.6,460.5L277.6,460.5z"/>
<path class="st1" d="M252.8,423h-7.2v8.1h-5.5v6.5h5.5v15.2c0,3.8,2.7,6.9,7.6,6.9h7.8v-6.5h-5.4c-1.7,0-2.7-0.7-2.7-2.2v-13.4h8.1
	v-6.5h-8.1L252.8,423L252.8,423z M175.4,459.7h27.1v-6.6h-19.8v-9.6H202v-6.4h-19.3v-9.5h19.8V421h-27.1V459.7z M229.7,433.8
	c-2.5-2.2-5.8-3.3-9.1-3.3c-8.3,0.4-14.7,7.4-14.4,15.7c0.3,7.5,6.2,13.7,13.7,14.3h0.6c3.3,0,6.6-1.2,9.1-3.3v2.6h7.2v-28.6
	l-7.2,0.1L229.7,433.8L229.7,433.8z M229.8,445.4v0.1c0.1,4.8-3.7,8.7-8.5,8.7h-0.2c-4.9,0.1-8.9-3.8-9-8.6c-0.1-4.9,3.8-8.9,8.6-9
	c4.9-0.1,8.9,3.8,9,8.6L229.8,445.4L229.8,445.4z M282,442.9l-6.2-1.3c-3.5-0.7-4.7-1.3-4.7-2.6c0-1.8,1.8-2.8,4.9-2.8
	c3.4,0,6,0.9,6.6,4.1h7.2c-0.4-6-4.7-9.9-13.4-9.9c-7.5,0-12.8,3.1-12.8,9.1c0,4.2,2.9,6.9,9.2,8.2l6.9,1.6c2.7,0.5,3.5,1.3,3.5,2.4
	c0,1.8-2,2.9-5.3,2.9c-4.2,0-6.5-0.9-7.5-4.1h-7.2c0.9,6,5.3,9.9,14.3,9.9c8.3,0,13-4,13-9.5C290.6,447.1,287.8,444.2,282,442.9
	L282,442.9z"/>
<path class="st2" d="M152.9,435h-0.2v-3.4h-5.3v28.2h5.6v-16c0-4.4,2.6-7.2,6.2-7.2h2.3v-5.2h-2C156.9,431.3,154.3,432.7,152.9,435z
	 M143.6,445.7c0-8.4-6-14.7-14.1-14.7c-8,0.1-14.5,6.6-14.4,14.6c-0.1,8,6.3,14.7,14.4,14.8h0.6c4.8,0.1,9.3-2.1,12.2-6l-4-2.9
	c-1.9,2.6-4.9,4.1-8.1,4.1c-4.7,0-8.6-3.4-9.3-8.1h22.8L143.6,445.7L143.6,445.7z M120.9,443.1c0.8-4.2,4.4-7.2,8.6-7.2
	c4.2,0.1,7.8,3.1,8.5,7.2C138,443.1,120.9,443.1,120.9,443.1z M71.1,444.9c0,6.2-4.1,10.3-9.5,10.3s-9.4-4-9.4-10.2v-23.9h-5.9v24.2
	c0,9.1,6.4,15.2,14.6,15.2c3.9,0,7.5-1.5,10.2-4.3v3.7h5.7v-38.7H71L71.1,444.9L71.1,444.9z M99,431h-1.5c-3.7,0-7.3,1.5-10,4.2
	v-14.1H82v38.6h5.5v-3.5c2.6,2.7,6.3,4.2,10,4.2c8.1,0.4,15-5.9,15.4-14C113.4,438.3,107.1,431.4,99,431L99,431z M106.9,445.7
	c0,5.4-4.3,9.7-9.7,9.7s-9.8-4.3-9.8-9.7c0-5.4,4.3-9.8,9.7-9.8S106.9,440.2,106.9,445.7z M195.7,378.2v-20.8h-9.3l-0.1,21.5
	c-0.2,4.6-4.1,8.1-8.7,7.9c-4.3-0.2-7.7-3.6-7.9-7.9v-21.5h-9.3v20.8c0,11,7.1,16.8,17.6,16.8C188.6,395,195.7,389.3,195.7,378.2z
	 M233.5,386.8h-18.4v-7.5h14.5v-7.4h-14.5v-6.7H233v-7.8h-27.2v37.1h27.7L233.5,386.8L233.5,386.8z M137.5,365.3
	c3.8-0.1,7.7,0.7,11.1,2.3l2.3-8.1c-4.3-1.9-9-2.8-13.7-2.6c-12.6,0-21.2,8.4-21.2,19s8.5,19.1,21,19.1c8.4,0,13-3,14.9-4.6v-15.1
	l-8.6,1.1v9.5c-1.8,0.8-3.8,1.2-5.8,1.2c-6.6,0-11.9-4.6-11.9-11.2S130.5,365.3,137.5,365.3L137.5,365.3z M272.2,394.5v-37.1h-5.3
	l-13.7,7.5l1.8,7.8l8.2-4.3v26.1H272.2L272.2,394.5z M64.5,357.4v37.1h27v-7.7H73.9v-29.4H64.5z M98.3,357.4h9.3v37.1h-9.3V357.4z"
	/>
<path class="st3" d="M240,210.3c-10.9,21.8-23.6,42.6-38.1,62.2c-20.3,1.5-40.6,1.7-60.9,0.5l-25.3,40.6c38.8,3.7,74,4.6,110.1-1
	c25.9-31.8,45.9-64.5,63.7-102c-13.8-32.3-32.7-61.8-53.6-89.4l-25.2,40.3C221.6,176.9,231.4,193.3,240,210.3z M126.3,244.2
	c-10.9-15.6-20.7-31.9-29.5-48.8c10.8-21.8,23.6-42.6,38.2-62.2c20.3-1.5,40.6-1.7,60.9-0.5l25.4-40.6c-36.6-3.7-73.5-3.4-110.1,1
	c-25.5,31.2-46.9,65.5-63.7,102.2c14.1,32.2,31.8,60.4,53.6,89.2L126.3,244.2L126.3,244.2z"/>
<path class="st2" d="M168.4,235.6c18.1,0,32.8-14.7,32.8-32.8c-0.1-18.1-14.7-32.8-32.8-32.8s-32.8,14.7-32.8,32.8
	S150.3,235.6,168.4,235.6z"/>
</svg>
